<?xml version="1.0" encoding="UTF-8"?>
<svg width="1200pt" height="1200pt" version="1.1" viewBox="0 0 1200 1200" xmlns="http://www.w3.org/2000/svg">
 <path d="m875 100c-125 0-225 100-225 225s100 225 225 225 225-100 225-225-100-225-225-225zm35 100c-90 0-160 70-160 160 0 20 0 40 10 60-20-25-35-60-35-95 0-85 65-150 150-150 35 0 65 15 95 35-20-10-40-10-60-10z"/>
 <path d="m955 925c-25-25-450-440-520-490-100-65-230-40-300 60-65 100-40 235 60 300 75 50 625 280 650 295 50 20 105 20 135-25 30-50 10-100-25-140zm-650-235c-40-5-70-40-65-80s40-70 80-65 70 40 65 80c0 40-40 70-80 65z"/>
</svg>
